<?xml version="1.0" encoding="UTF-8" standalone="no"?>
<!DOCTYPE svg PUBLIC "-//W3C//DTD SVG 1.1//EN" "http://www.w3.org/Graphics/SVG/1.1/DTD/svg11.dtd">
<svg width="100%" height="100%" viewBox="0 0 24 24" version="1.1" xmlns="http://www.w3.org/2000/svg" xmlns:xlink="http://www.w3.org/1999/xlink" xml:space="preserve" xmlns:serif="http://www.serif.com/" style="fill-rule:evenodd;clip-rule:evenodd;stroke-linecap:round;stroke-linejoin:round;stroke-miterlimit:1.5;">
    <path d="M17.248,3L11,2L5,4L4,8L2,12L5,20L12,22L16,21L20,21L22,16L21,12L21,7L17.248,3Z" style="fill:none;stroke:rgb(255,207,0);stroke-width:1px;"/>
    <path 
      style="fill:rgb(255,207,0)"
    d="M17.248,3L16,4.241L14,5L13,8L8,9.745L7.288,13L9,17.703L8.5,21L12,22L16,21L20,21L22,16L21,12L21,7L17.248,3ZM12,10L13,12L11.78,12.5L10,12L12,10Z"/>
</svg>
