<?xml version="1.0" encoding="UTF-8" standalone="no"?>
<!DOCTYPE svg PUBLIC "-//W3C//DTD SVG 1.1//EN" "http://www.w3.org/Graphics/SVG/1.1/DTD/svg11.dtd">
<svg width="100%" height="100%" viewBox="0 0 24 24" version="1.1" xmlns="http://www.w3.org/2000/svg" xmlns:xlink="http://www.w3.org/1999/xlink" xml:space="preserve" xmlns:serif="http://www.serif.com/" style="fill-rule:evenodd;clip-rule:evenodd;stroke-linecap:round;stroke-linejoin:round;stroke-miterlimit:1.5;">
    <circle cx="12" cy="12" r="11" style="fill:rgb(255,207,0);stroke:black;stroke-width:2px;"/>
    <g transform="matrix(1.04545,0,0,1.04545,-0.545455,-0.545455)">
        <circle cx="12" cy="12" r="11" style="fill:none;stroke:rgb(255,207,0);stroke-width:0.53px;"/>
    </g>
    <g transform="matrix(0.889381,0,0,0.889381,1.32743,1.32743)">
        <path d="M12,0.756L10,10L0.756,12L10,14L12,23.244L14,14L23.244,12L14,10L12,0.756Z"/>
    </g>
    <g transform="matrix(0.48916,-0.48916,0.48916,0.48916,0.260171,12)">
        <path d="M12,0.756L10,10L0.756,12L10,14L12,23.244L14,14L23.244,12L14,10L12,0.756Z"/>
    </g>
    <g transform="matrix(0.4,-1.77636e-16,1.77636e-16,0.4,7.2,7.2)">
        <g transform="matrix(1.125,7.25056e-34,7.25056e-34,1.125,-1.5,-1.5)">
            <path d="M17.248,3L11,2L5,4L4,8L2,12L5,20L12,22L16,21L20,21L22,16L21,12L21,7L17.248,3Z" style="fill:rgb(255,207,0);stroke:rgb(255,207,0);stroke-width:2.22px;"/>
        </g>
        <path d="M17.248,3L11,2L5,4L4,8L2,12L5,20L12,22L16,21L20,21L22,16L21,12L21,7L17.248,3Z" style="fill:rgb(255,207,0);stroke:black;stroke-width:2.5px;"/>
        <path d="M17.248,3L16,4.241L14,5L13,8L8,9.745L7.288,13L9,17.703L8.5,21L12,22L16,21L20,21L22,16L21,12L21,7L17.248,3ZM12,10L13,12L11.78,12.5L10,12L12,10Z"/>
    </g>
</svg>
